<?xml version="1.0" standalone="no"?>
<!DOCTYPE svg PUBLIC "-//W3C//DTD SVG 1.1//EN" "http://www.w3.org/Graphics/SVG/1.1/DTD/svg11.dtd">
<svg xmlns="http://www.w3.org/2000/svg" id="Camada_2" data-name="Camada 2" viewBox="0 0 2206 883" width="2206" height="883">
  <defs>
    <style>
      .cls-1 {
        fill: none;
      }

      .cls-2 {
        fill: #484848;
      }
    </style>
  </defs>
  <g id="Layer_1" data-name="Layer 1">
    <path class="cls-2" d="M778.72,17.9c1.42-3.38,1.78-6.21,1.33-8.55-1.19-6.12-8-8.8-16.14-8.77-12.78,.05-25.23,4.43-37.57,7.15-18.25,4.03-34.6,8.72-37.98,9.71-61.11,17.77-121.29,38.67-182.17,57.2-94.06,28.64-187.84,58.19-281.94,86.7-47.05,14.26-94.17,28.26-141.44,41.76-15.23,4.35-97.95,16.66-79.66,47.64,10.24,17.33,45.3,31.39,62.92,39.32,16.09,7.25,32.86,13.01,50.01,17.17,12.56,3.04,34.41,1.93,42.42,13.89,2.91,4.34,4.37,9.46,5.79,14.49,12.01,42.53,21.69,86.61,35.81,128.42,16.02,47.43,68.02-13.29,88.82-28.62,13.63-10.05,24.97-10.66,40.11-4.47,26.57,10.87,68.13,49.6,92.55,32.05,60.4-43.4,98.78-113.7,143.87-171.4,47.72-61.06,97.62-120.38,146.08-180.85,22.35-27.88,53.23-59.55,67.21-92.85ZM218.06,397.87c-2.43,1.9-5.39,2.6-9.05,1.54-13.03-3.76-13.69-25.97-16.32-36.51-4.35-17.41-16.1-36.92-10.19-55.29,3.26-10.11,18.86-13.45,27.43-16.88,27.38-10.95,53.47-24.88,80.25-37.18,85.4-35.24,167.92-77.5,251.29-117.22,23.77-11.32,58.29-35.06,80.55-37.35,8.29-.85-20.88,20.92-31.38,26.88-16.22,9.21-33.57,16.25-49.7,25.65-36.74,21.43-73.48,42.85-110.21,64.28-47.86,27.91-90.47,63.47-136.08,94.7-18.34,12.56-44.8,22.64-59.1,39.92-6.14,7.42-6.77,39.09-17.49,47.46Zm60.54,26.98c-11.68,5.88-22.48,13.74-33.9,20.13-3.47,1.94-12.72,8.96-16.95,8.23-7.74-1.34-.85-23.91,.16-27.98,1.42-5.74,3.24-11.37,4.77-17.08,1.45-5.4,.89-14.36,5.28-18.06,.38-.32,.78-.58,1.19-.79,5.74-2.92,16.9,4.55,21.98,6.93,8.47,3.99,16.79,8.44,24.27,14.11,10.89,8.24,1.41,10.38-6.79,14.51ZM692.42,94.13c-16.58,31.23-207.24,254.85-240.06,305.82-13.13,20.39-33.74,38.76-61.92,28.4-22.94-8.43-45.15-18.63-67.3-28.94-12.17-5.67-63.1-21.36-57.34-39.8,3.54-11.3,22.12-18.84,31.36-24.94,16.5-10.9,33.05-21.72,49.66-32.45,33.22-21.47,66.62-42.65,100.07-63.76,35.74-22.56,71.89-44.43,107.44-67.29,33.48-21.53,62.87-47.97,94.98-71.34,10.65-7.75,22.25-15.25,35.36-16.46,3.43-.32,7.65,.28,9.02,3.45,1.01,2.36-.08,5.05-1.28,7.31Zm-41.62-26.01c-20.5,9.39-41.47,17.75-61.75,27.62-76.84,37.39-158.51,65.14-236.73,101.56-40.19,18.71-78.32,39.5-119.06,56.98-38.1,16.35-72.2,42.53-114.13,28.39-19.58-6.6-40.32-10.62-58.76-20.24-5.31-2.77-25.11-12.82-24.92-20.15,0-.2,.02-.4,.06-.6,1.37-8.49,26.83-13.66,33.34-15.6,42.21-12.6,84.57-24.64,126.86-36.94,86.67-25.07,173.86-48.34,260.35-74.04,43.72-12.99,87.27-26.59,130.43-41.34,21.09-7.21,42.09-14.69,62.97-22.5,12.4-4.64,46.51-17.4,56.26-15.54,16.23,3.09-39.95,25.56-54.9,32.41Z"/>
    <path class="cls-2" d="M819.98,567.08c0-68.46-42.01-111.26-95.69-111.26-31.12,0-54.85,14.39-66.91,33.84v-101.53h-66.52v287.86h66.52v-30.34c12.06,19.06,35.01,33.45,66.91,33.45,53.29,0,95.69-43.57,95.69-112.03Zm-115.53,54.07c-24.9,0-47.46-19.06-47.46-53.68s22.56-53.68,47.46-53.68,47.85,18.67,47.85,53.29-22.56,54.07-47.85,54.07Z"/>
    <path class="cls-2" d="M974.03,456.6c-29.18,0-52.9,15.56-68.08,38.51v-36.18h-66.52v217.07h66.52v-100.75c0-37.34,18.28-48.24,49.79-48.24h18.28v-70.41Z"/>
    <path class="cls-2" d="M1216.6,676v-217.07h-66.52v30.73c-11.67-19.06-34.62-33.84-66.91-33.84-53.29,0-95.7,42.79-95.7,111.26s42.4,112.03,95.31,112.03c32.29,0,55.24-14.78,67.3-33.84v30.73h66.52Zm-113.98-54.85c-24.9,0-47.46-19.45-47.46-54.07s22.56-53.29,47.46-53.29,47.46,19.06,47.46,53.68-22.17,53.68-47.46,53.68Z"/>
    <path class="cls-2" d="M1306.85,521.95c0-10.5,8.56-16.73,24.12-16.73,18.67,0,29.95,9.72,31.9,24.51h61.46c-4.28-42.79-35.4-73.91-91.42-73.91s-88.31,30.34-88.31,67.3c0,79.75,118.26,54.46,118.26,89.47,0,9.72-8.95,17.5-26.06,17.5-18.28,0-31.9-10.11-33.45-25.28h-65.74c3.11,42.01,42.01,74.3,99.97,74.3,54.46,0,87.92-28.4,87.92-66.13-1.17-80.91-118.65-56.41-118.65-91.03Z"/>
    <path class="cls-2" d="M1484.24,364.4c-23.73,0-39.68,15.95-39.68,36.18s15.95,35.79,39.68,35.79,39.29-15.95,39.29-35.79-15.95-36.18-39.29-36.18Z"/>
    <rect class="cls-2" x="1450.78" y="458.93" width="66.52" height="217.07"/>
    <rect class="cls-2" x="1549.98" y="388.13" width="66.52" height="287.86"/>
    <path class="cls-2" d="M677.61,317.89c0,68.47,42.4,112.03,95.31,112.03,32.29,0,55.24-14.78,67.3-33.84v30.73h66.52V209.75h-66.52v30.73c-11.67-19.06-34.62-33.84-66.91-33.84-53.29,0-95.7,42.79-95.7,111.26Zm162.6,.39c0,34.62-22.17,53.68-47.46,53.68s-47.46-19.45-47.46-54.07,22.56-53.29,47.46-53.29,47.46,19.06,47.46,53.68Z"/>
    <path class="cls-2" d="M1005.93,308.94c0-29.56,16.34-45.9,41.62-45.9s41.62,16.34,41.62,45.9v117.87h66.13v-126.82c0-58.35-33.45-92.58-83.64-92.58-29.17,0-52.52,12.84-65.74,31.12v-28.79h-66.52v217.07h66.52v-117.87Z"/>
    <path class="cls-2" d="M1268.13,429.92c32.29,0,55.24-14.78,67.3-33.84v30.73h66.52V209.75h-66.52v30.73c-11.67-19.06-34.62-33.84-66.91-33.84-53.29,0-95.7,42.79-95.7,111.26s42.4,112.03,95.31,112.03Zm19.84-165.33c25.28,0,47.46,19.06,47.46,53.68s-22.17,53.68-47.46,53.68-47.46-19.45-47.46-54.07,22.56-53.29,47.46-53.29Z"/>
    <rect class="cls-1" y="207" width="2206" height="469"/>
    <rect class="cls-1" x=".5" y="207" width="2205" height="469"/>
    <rect class="cls-1" x="1" y="207" width="2204" height="469"/>
    <rect class="cls-1" width="2206" height="883"/>
  </g>
</svg>